<?xml version="1.0" encoding="iso-8859-1"?>
<!-- Generator: Adobe Illustrator 19.0.0, SVG Export Plug-In . SVG Version: 6.00 Build 0)  -->
<svg version="1.1" id="Capa_1" xmlns="http://www.w3.org/2000/svg" xmlns:xlink="http://www.w3.org/1999/xlink" x="0px" y="0px"
	 viewBox="0 0 512 512" style="enable-background:new 0 0 512 512;" xml:space="preserve">
<g transform="translate(1 1)">
	<g>
		<g>
			
			<path d="M360.592,149.408c-8.331-8.331-21.839-8.331-30.17,0l-75.425,75.425l-75.425-75.425c-8.331-8.331-21.839-8.331-30.17,0
				s-8.331,21.839,0,30.17l75.425,75.425L149.43,330.4c-8.331,8.331-8.331,21.839,0,30.17c8.331,8.331,21.839,8.331,30.17,0
				l75.397-75.397l75.419,75.419c8.331,8.331,21.839,8.331,30.17,0c8.331-8.331,8.331-21.839,0-30.17l-75.419-75.419l75.425-75.425
				C368.923,171.247,368.923,157.74,360.592,149.408z"/>
		</g>
	</g>
</g>
<g>
</g>
<g>
</g>
<g>
</g>
<g>
</g>
<g>
</g>
<g>
</g>
<g>
</g>
<g>
</g>
<g>
</g>
<g>
</g>
<g>
</g>
<g>
</g>
<g>
</g>
<g>
</g>
<g>
</g>
</svg>
